<?xml version="1.0" standalone="no"?>
<!DOCTYPE svg PUBLIC "-//W3C//DTD SVG 20010904//EN"
 "http://www.w3.org/TR/2001/REC-SVG-20010904/DTD/svg10.dtd">
<svg version="1.0" xmlns="http://www.w3.org/2000/svg"
 width="300.000000pt" height="300.000000pt" viewBox="0 0 300.000000 300.000000"
 preserveAspectRatio="xMidYMid meet">
<metadata>
Created by potrace 1.14, written by Peter Selinger 2001-2017
</metadata>
<g transform="translate(0.000000,300.000000) scale(0.100000,-0.100000)"
fill="#000000" stroke="none">
<path d="M2995 1500 c0 -828 1 -1166 2 -752 2 413 2 1091 0 1505 -1 413 -2 75
-2 -753z"/>
<path d="M2864 2854 c9 -6 14 -13 11 -15 -2 -3 4 -5 14 -6 10 -1 18 4 18 12 0
7 -7 11 -15 7 -9 -3 -13 -1 -9 4 3 5 -3 10 -14 10 -18 0 -18 -2 -5 -12z"/>
<path d="M2845 2841 c6 -11 3 -13 -13 -9 -14 4 -19 2 -15 -8 2 -7 11 -10 19
-7 8 3 14 0 14 -7 0 -6 5 -8 12 -4 6 4 8 3 5 -4 -9 -13 -30 -10 -53 8 -11 9
-15 10 -10 3 4 -8 1 -13 -8 -13 -9 0 -16 -5 -16 -11 0 -5 4 -8 8 -5 4 2 9 -5
9 -17 2 -17 0 -19 -7 -7 -9 13 -11 13 -19 0 -5 -8 -8 -17 -5 -21 2 -4 0 -10
-5 -14 -10 -6 -8 12 4 50 5 16 4 15 -7 -3 -8 -12 -16 -20 -19 -17 -3 3 -5 -8
-4 -24 1 -21 -2 -28 -12 -24 -10 4 -11 9 -3 18 8 10 8 15 -1 21 -7 4 -9 3 -5
-4 3 -6 2 -13 -4 -17 -7 -4 -6 -13 1 -28 7 -12 8 -19 4 -15 -10 10 -56 -42
-48 -55 3 -6 1 -7 -6 -3 -6 4 -9 12 -6 17 4 5 3 9 -1 9 -14 0 -63 -63 -58 -74
3 -6 -1 -2 -10 8 -15 18 -15 17 -11 -13 2 -18 0 -29 -6 -25 -5 3 -7 10 -4 15
4 5 1 9 -6 9 -6 0 -9 -8 -6 -20 3 -11 1 -23 -4 -26 -5 -3 -7 -9 -4 -14 3 -5 0
-12 -6 -16 -7 -4 -10 -3 -7 2 3 5 -5 17 -19 28 l-25 19 17 -27 c11 -17 13 -26
6 -26 -7 0 -9 -4 -6 -10 3 -5 1 -10 -5 -10 -7 0 -10 6 -7 13 3 8 1 20 -4 28
-8 11 -9 9 -7 -6 2 -11 -2 -19 -7 -18 -6 1 -12 -10 -13 -23 -1 -15 2 -23 8
-19 6 4 7 11 4 17 -4 7 -2 8 4 4 17 -11 15 -14 -20 -36 -35 -21 -53 -26 -44
-12 3 5 -1 9 -9 9 -11 0 -12 -4 -4 -13 7 -8 5 -16 -5 -27 -8 -8 -12 -18 -8
-23 4 -5 -1 -3 -10 4 -14 11 -16 10 -11 -7 3 -12 10 -18 17 -14 6 3 7 2 3 -3
-5 -5 -14 -9 -20 -9 -7 -1 -11 -7 -9 -14 1 -7 -2 -10 -8 -6 -7 4 -6 13 2 28
10 20 10 21 -5 8 -10 -7 -17 -25 -17 -38 0 -25 0 -25 -17 -6 -10 10 -15 14
-12 8 13 -23 18 -46 9 -40 -6 3 -13 -1 -16 -9 -3 -9 -11 -16 -17 -16 -5 0 -2
9 8 20 11 12 13 20 6 20 -7 0 -9 5 -5 12 4 7 3 8 -4 4 -6 -4 -8 -14 -5 -23 4
-9 2 -14 -3 -10 -9 5 -12 -6 -16 -49 -1 -7 -12 -11 -25 -9 -13 1 -34 -6 -46
-17 -12 -11 -17 -17 -12 -14 6 2 17 1 25 -5 13 -7 12 -9 -1 -9 -18 0 -33 -26
-24 -41 4 -5 -1 -6 -10 -3 -12 5 -13 10 -6 17 14 14 14 27 -1 27 -6 0 -9 -3
-6 -6 4 -3 0 -17 -7 -31 -7 -14 -11 -33 -8 -42 4 -13 3 -14 -5 -1 -6 8 -9 17
-7 20 2 4 -2 7 -10 7 -9 0 -11 -6 -5 -22 5 -12 5 -26 2 -31 -9 -12 -56 -18
-48 -6 3 5 -2 16 -12 23 -15 13 -16 12 -3 -3 12 -16 11 -18 -5 -19 -18 0 -18
-1 0 -8 20 -8 32 -41 14 -41 -6 0 -7 7 -4 16 5 13 3 14 -6 7 -7 -6 -21 -9 -31
-8 -15 3 -16 1 -6 -11 14 -17 23 -18 13 -1 -5 8 -2 8 9 -2 18 -14 23 -26 8
-17 -5 4 -12 0 -14 -6 -4 -10 -6 -10 -6 0 -1 18 -14 15 -39 -8 -18 -17 -20
-25 -11 -41 6 -12 8 -23 5 -27 -3 -3 -6 1 -6 9 0 11 -2 11 -10 -1 -5 -8 -15
-15 -22 -15 -7 -1 -12 -6 -11 -13 2 -8 -4 -9 -22 -2 -16 6 -27 6 -31 -2 -4 -6
-3 -8 2 -5 5 3 20 -3 33 -12 18 -14 21 -20 11 -26 -9 -6 -11 -4 -5 5 6 10 4
12 -9 7 -9 -4 -15 -3 -11 3 3 5 -4 8 -14 7 -19 -1 -19 -2 -3 -21 15 -19 15
-19 0 -8 -14 11 -21 11 -43 0 -24 -13 -25 -16 -10 -28 8 -7 18 -10 22 -6 3 3
1 6 -5 6 -17 0 -15 17 3 23 8 4 17 1 21 -5 5 -7 3 -8 -5 -4 -8 6 -11 2 -9 -10
2 -13 -4 -19 -19 -20 -13 -1 -28 -6 -35 -12 -13 -10 -18 -12 -39 -12 -5 0 -7
-5 -3 -11 4 -8 9 -7 15 2 7 11 9 10 9 -3 0 -10 -4 -18 -9 -18 -6 0 -8 -8 -6
-19 2 -12 -2 -18 -13 -17 -9 0 -16 -4 -15 -11 2 -7 -3 -10 -11 -7 -8 3 -17 -3
-20 -14 -4 -11 -23 -26 -44 -34 l-37 -15 37 2 c21 1 35 -1 33 -5 -2 -4 -18 -7
-35 -8 -40 -1 -50 -9 -50 -37 0 -12 -7 -26 -16 -29 -14 -5 -15 -4 -5 8 8 10 9
16 1 21 -6 4 -9 1 -8 -6 2 -7 -1 -13 -7 -14 -19 -1 -34 -16 -29 -28 2 -7 -2
-21 -10 -32 -14 -19 -15 -19 -10 7 2 15 1 29 -4 32 -4 2 -8 -13 -7 -34 1 -33
-1 -37 -14 -27 -12 10 -13 9 -1 -13 12 -23 12 -24 -3 -11 -20 16 -23 1 -4 -18
10 -11 10 -13 0 -7 -21 12 -36 -4 -21 -22 12 -16 11 -16 -6 -2 -18 14 -19 13
-12 -5 6 -16 5 -17 -5 -8 -10 10 -9 17 7 34 19 22 19 22 -3 8 -13 -8 -23 -21
-23 -30 0 -9 -7 -23 -17 -30 -15 -13 -15 -12 -4 9 15 28 11 36 -7 16 -7 -8
-10 -14 -7 -14 3 0 1 -9 -5 -20 -6 -12 -16 -18 -23 -14 -7 4 -9 4 -5 -1 4 -4
0 -14 -10 -22 -9 -8 -11 -11 -4 -8 12 6 12 3 2 -16 -17 -33 -24 -38 -16 -12 4
12 2 24 -5 29 -7 4 -9 3 -6 -3 4 -6 0 -14 -9 -17 -8 -3 -12 -11 -8 -17 4 -8 3
-9 -4 -5 -9 5 -9 13 -2 26 15 28 12 37 -4 14 -8 -10 -18 -16 -22 -11 -4 4 -2
7 4 7 18 0 15 16 -3 18 -8 1 -22 3 -30 4 -8 1 -15 6 -15 11 0 5 7 7 14 4 10
-4 13 -1 9 8 -3 8 -9 12 -14 9 -5 -3 -9 1 -10 8 -1 7 -5 2 -9 -12 l-8 -25 -1
28 c-1 16 -5 26 -10 22 -6 -3 -15 4 -21 15 -6 11 -16 17 -22 14 -7 -5 -8 -2
-3 6 6 10 4 12 -10 6 -15 -5 -16 -4 -5 9 11 13 16 11 36 -17 13 -17 24 -27 24
-21 0 7 -4 14 -10 18 -5 3 -7 13 -4 23 5 13 4 14 -4 3 -8 -11 -11 -9 -17 8 -6
19 -8 19 -21 6 -9 -8 -21 -15 -27 -15 -7 0 -4 5 6 11 17 10 17 12 -2 43 -12
18 -17 36 -13 41 4 4 -3 2 -15 -4 -26 -13 -31 -23 -8 -15 8 4 15 2 15 -4 0
-13 -27 -9 -41 5 -8 8 -8 13 0 18 8 4 6 11 -4 21 -8 9 -12 20 -9 26 4 7 2 8
-4 4 -11 -7 -17 6 -13 28 1 5 -4 5 -11 -1 -17 -13 -52 -13 -39 0 11 11 3 37
-11 37 -6 0 -4 -8 3 -17 13 -16 12 -17 -3 -4 -10 7 -18 20 -18 27 0 8 -4 14
-10 14 -6 0 -6 -9 0 -25 13 -35 5 -31 -14 5 -8 17 -11 28 -6 25 19 -12 2 27
-18 41 -13 9 -19 21 -15 27 3 7 -3 4 -14 -6 -16 -14 -20 -15 -20 -2 0 8 4 15
9 15 5 0 6 5 2 11 -3 6 -9 7 -13 3 -14 -21 -27 -10 -26 22 1 28 -1 32 -12 22
-11 -9 -16 -9 -23 2 -5 8 -7 17 -4 21 2 4 0 10 -5 13 -5 4 -13 1 -17 -5 -5 -8
-3 -9 7 -4 8 5 11 4 6 0 -14 -16 -43 -12 -44 7 -1 10 2 20 8 23 5 3 6 -1 3 -9
-3 -9 -1 -16 6 -16 6 0 9 4 6 9 -4 5 -2 11 2 13 5 1 1 11 -8 21 -14 14 -20 15
-26 6 -4 -8 -3 -10 4 -5 7 4 12 2 12 -3 0 -6 -7 -11 -15 -11 -18 0 -20 21 -3
40 11 12 10 12 -6 0 -16 -13 -20 -12 -32 5 -8 10 -14 13 -14 6 0 -7 -5 -9 -11
-5 -8 4 -7 9 2 15 9 6 18 3 26 -7 11 -15 12 -14 10 3 -1 22 -33 28 -57 10 -8
-6 -6 -1 5 12 l20 24 -22 -12 c-20 -10 -21 -9 -18 22 3 23 2 28 -5 17 -10 -16
-13 -10 -13 31 0 9 -6 16 -13 16 -7 0 -11 -4 -8 -9 3 -4 -2 -8 -11 -8 -9 0
-13 5 -10 10 3 6 2 10 -4 10 -5 0 -12 -6 -15 -12 -3 -7 -3 -1 0 13 3 15 1 30
-5 34 -6 3 -9 11 -5 16 3 5 0 8 -8 7 -7 -2 -12 2 -11 9 2 8 -4 10 -14 6 -10
-4 -14 -2 -9 5 3 6 2 13 -3 16 -5 4 -13 1 -17 -5 -5 -8 -3 -9 6 -4 8 5 11 4 6
-3 -3 -6 1 -15 10 -20 9 -5 15 -13 15 -18 -1 -5 4 -9 11 -9 6 0 13 -7 15 -15
3 -10 2 -11 -4 -4 -4 6 -16 10 -25 9 -10 -2 -17 0 -17 3 3 22 -2 32 -13 26 -7
-4 -10 -4 -6 1 4 4 3 14 -3 22 -6 7 -8 13 -4 13 5 0 -2 9 -14 19 -12 11 -23
28 -24 38 -1 22 -24 26 -46 9 -12 -9 -12 -8 -3 11 16 30 15 38 -3 23 -9 -7
-18 -10 -22 -6 -3 3 -1 6 5 6 7 0 12 5 12 12 0 6 -3 8 -7 5 -3 -4 -12 1 -20
11 -8 9 -12 11 -8 5 4 -9 1 -11 -11 -6 -14 5 -13 8 7 20 23 14 24 14 2 8 -20
-5 -23 -2 -23 19 0 14 -4 27 -10 27 -5 1 -16 2 -22 3 -7 0 -13 8 -13 16 -1 27
-16 41 -36 35 -14 -5 -20 -2 -18 7 3 20 -12 48 -26 48 -7 0 -15 7 -19 15 -3 9
-12 12 -22 8 -13 -5 -15 -3 -9 7 5 9 4 11 -4 6 -6 -4 -9 -12 -6 -17 4 -5 1 -9
-4 -9 -6 0 -11 -8 -11 -17 0 -16 1 -15 13 1 13 18 47 13 47 -7 0 -7 -4 -7 -12
1 -17 17 -33 15 -19 -2 9 -11 9 -16 0 -22 -8 -4 -9 -3 -5 4 10 16 -7 15 -23 0
-8 -7 -11 -8 -8 -3 3 6 1 17 -5 25 -8 12 -9 12 -4 -2 3 -10 0 -18 -6 -18 -17
0 -3 -11 19 -14 10 -2 16 -7 13 -12 -3 -5 -7 -8 -10 -7 -3 0 -14 -11 -25 -25
-11 -17 -13 -22 -4 -15 9 7 20 9 24 5 5 -4 5 -1 1 6 -4 6 -2 12 4 12 6 0 8
-10 4 -25 -4 -17 -2 -25 7 -25 11 0 11 -2 0 -9 -12 -8 -12 -12 -2 -25 8 -9 10
-16 6 -16 -4 0 -13 8 -20 17 -11 15 -12 14 -10 -10 2 -16 -3 -30 -12 -36 -13
-7 -13 -9 2 -15 17 -6 17 -8 -1 -29 l-19 -22 21 18 c14 12 21 27 19 47 -2 21
1 27 12 23 8 -3 11 -9 6 -12 -13 -10 -14 -31 -1 -31 9 0 9 -3 -1 -9 -11 -7
-12 -13 -4 -23 11 -14 10 -52 -3 -82 -4 -12 -4 -17 3 -13 5 3 10 0 10 -8 0
-12 -4 -12 -20 2 -20 18 -20 18 -3 -14 9 -18 13 -33 9 -33 -4 0 2 -7 13 -16
18 -15 18 -15 -3 -5 -12 6 -24 11 -27 11 -8 0 22 -52 36 -62 10 -7 8 -8 -5 -4
-22 7 -22 -3 1 -21 15 -13 15 -13 -5 -4 -12 6 -24 11 -27 11 -8 0 22 -53 36
-61 11 -7 11 -9 0 -9 -7 0 -10 -4 -7 -10 3 -5 0 -7 -8 -4 -20 7 -31 -14 -17
-31 8 -10 8 -19 0 -34 -6 -12 -7 -21 -3 -21 4 0 0 -7 -10 -14 -16 -13 -16 -14
-1 -20 15 -6 15 -8 -2 -29 l-19 -22 21 18 c14 12 21 27 19 47 -2 21 1 27 12
23 8 -3 11 -9 6 -12 -13 -10 -14 -31 -1 -31 9 0 9 -3 -1 -9 -11 -7 -12 -13 -4
-23 11 -14 10 -52 -3 -82 -4 -12 -4 -17 3 -13 5 3 10 0 10 -8 0 -12 -4 -12
-20 2 -20 18 -20 18 -3 -14 9 -18 13 -33 9 -33 -4 0 2 -7 13 -16 18 -15 18
-15 -3 -5 -12 6 -24 11 -27 11 -8 0 22 -52 36 -62 10 -7 8 -8 -4 -4 -23 7 -23
-3 -1 -21 16 -13 16 -13 -4 -4 -12 6 -24 11 -27 11 -8 0 22 -53 36 -61 11 -7
11 -9 0 -9 -7 0 -10 -4 -7 -10 3 -5 0 -7 -8 -4 -20 7 -31 -14 -17 -31 8 -10 8
-19 0 -34 -6 -12 -7 -21 -3 -21 4 0 0 -7 -10 -14 -16 -13 -16 -14 -1 -20 15
-6 15 -8 -2 -29 l-19 -22 21 18 c14 12 21 27 19 47 -2 21 1 27 12 23 8 -3 11
-9 6 -12 -13 -10 -14 -31 -1 -31 9 0 9 -3 -1 -9 -11 -7 -12 -13 -4 -23 11 -14
10 -52 -3 -82 -4 -12 -4 -17 3 -13 5 3 10 0 10 -8 0 -12 -4 -12 -20 2 -20 18
-20 18 -3 -14 9 -18 13 -33 9 -33 -4 0 2 -7 13 -16 18 -15 18 -15 -3 -5 -12 6
-24 11 -27 11 -8 0 22 -52 36 -62 10 -7 8 -8 -4 -4 -23 7 -23 -3 -1 -21 16
-13 16 -13 -4 -4 -12 6 -24 11 -27 11 -8 0 22 -53 36 -61 11 -7 11 -9 0 -9 -7
0 -10 -4 -7 -10 3 -5 0 -7 -8 -4 -20 7 -31 -14 -17 -31 8 -10 8 -19 0 -34 -6
-12 -7 -21 -3 -21 4 0 0 -7 -10 -14 -16 -13 -16 -14 -1 -20 15 -6 15 -8 -2
-29 l-19 -22 21 18 c14 12 21 27 19 47 -2 21 1 27 12 23 8 -3 11 -9 6 -12 -13
-10 -14 -31 0 -31 8 0 8 -3 -2 -9 -11 -7 -12 -13 -4 -23 11 -14 10 -52 -3 -82
-4 -12 -4 -17 3 -13 5 3 10 0 10 -8 0 -12 -4 -12 -20 2 -20 18 -20 18 -3 -14
9 -18 13 -33 9 -33 -4 0 2 -7 13 -16 18 -15 18 -15 -3 -5 -12 6 -24 11 -27 11
-8 0 22 -52 36 -62 10 -7 8 -8 -4 -4 -10 3 -18 3 -18 -1 0 -3 8 -12 18 -20 15
-13 15 -13 -5 -4 -12 6 -24 11 -27 11 -8 0 22 -53 36 -61 11 -7 11 -9 0 -9 -7
0 -10 -4 -7 -10 3 -6 -1 -7 -10 -4 -8 4 -14 11 -13 18 2 6 -2 11 -7 11 -6 0
-8 -4 -6 -10 2 -5 4 -17 4 -25 0 -8 4 -20 9 -27 6 -7 5 -19 -2 -32 -6 -12 -7
-21 -3 -21 4 0 0 -7 -10 -14 -15 -12 -15 -14 -2 -19 8 -4 12 -13 9 -22 -3 -8
-2 -15 3 -15 6 0 9 18 8 39 -1 30 1 38 12 34 11 -4 11 -8 3 -13 -15 -10 -15
-21 2 -31 10 -7 10 -9 -2 -9 -13 0 -13 -1 0 -10 10 -6 11 -10 3 -10 -8 0 -13
-14 -13 -34 0 -32 -19 -61 -33 -51 -4 3 -5 2 -2 -2 10 -12 35 -12 29 0 -4 7 1
5 11 -4 12 -12 14 -21 7 -35 -5 -11 -8 -27 -7 -36 2 -10 -1 -18 -6 -18 -6 0
-8 -4 -5 -9 3 -5 0 -14 -7 -20 -10 -8 -14 -7 -14 4 0 8 5 11 11 8 6 -3 8 -3 4
2 -4 4 -3 17 3 28 7 12 7 17 1 13 -6 -3 -13 0 -16 6 -3 7 -3 3 -1 -9 3 -12 1
-24 -5 -28 -6 -3 -8 -11 -5 -16 4 -5 0 -9 -7 -9 -8 0 -6 -5 5 -11 15 -9 16
-13 5 -27 -12 -15 -11 -16 4 -3 10 7 15 18 11 24 -3 6 -1 7 5 3 7 -4 12 -2 12
5 0 7 3 10 6 7 3 -4 -1 -17 -10 -30 -15 -23 -14 -24 9 -26 14 -1 25 4 25 11 0
8 2 9 8 1 9 -15 754 -15 745 -1 -4 6 -1 7 8 1 20 -13 400 -13 392 -1 -4 6 -1
7 8 1 21 -14 1540 -14 1532 0 -5 8 -3 8 8 0 8 -6 22 -11 31 -11 16 0 21 6 28
32 2 6 10 15 18 21 13 9 12 11 -2 11 -15 0 -21 -10 -17 -31 1 -5 -6 -3 -16 4
-28 22 -29 24 -10 17 16 -6 25 7 10 16 -5 2 -2 2 5 1 6 -2 12 1 12 6 0 5 8 7
18 4 14 -5 14 -4 2 4 -8 6 -17 9 -21 6 -4 -2 -10 3 -13 12 -3 8 -2 13 3 9 5
-3 12 1 14 7 4 10 6 10 6 1 1 -7 6 -13 12 -13 8 0 7 5 -1 15 -8 10 -21 13 -33
9 -17 -5 -18 -4 -6 9 10 11 19 12 34 5 20 -9 20 -9 1 6 -18 15 -15 21 9 16 6
-1 4 4 -2 11 -7 7 -13 17 -13 22 0 4 6 5 13 1 6 -4 4 1 -5 12 -13 15 -15 23
-7 31 8 8 8 13 0 17 -6 4 -11 12 -11 18 0 6 7 5 18 -3 15 -13 16 -12 3 4 -9
11 -21 15 -34 11 -17 -5 -18 -4 -6 9 10 11 19 12 34 5 18 -8 19 -8 3 5 -10 8
-14 18 -10 22 4 5 0 6 -10 2 -14 -5 -15 -1 -8 25 5 16 14 36 20 43 8 9 8 15 0
20 -7 4 -6 13 2 28 10 20 10 21 -5 8 -10 -7 -17 -9 -17 -3 0 15 26 33 35 24 5
-4 5 -1 1 6 -6 11 -12 10 -31 -2 -19 -12 -26 -13 -31 -3 -4 6 -3 9 1 4 10 -9
47 22 39 34 -3 5 0 9 7 9 10 0 10 3 1 12 -8 8 -8 17 -1 31 7 11 7 17 1 13 -5
-3 -9 5 -9 19 0 15 4 22 11 18 6 -3 8 -3 4 2 -4 4 -2 15 5 24 11 14 10 15 -7
1 -22 -17 -44 -21 -51 -10 -3 5 4 7 15 5 25 -5 26 10 3 24 -16 9 -16 10 4 8
12 0 19 -6 16 -12 -4 -5 -2 -7 2 -2 5 4 9 16 10 27 1 15 -1 17 -12 9 -8 -7
-13 -8 -13 -1 0 15 26 33 35 24 5 -4 5 -1 1 6 -6 9 -12 9 -29 1 -21 -12 -21
-11 -4 8 9 11 14 23 10 26 -3 4 0 7 7 7 11 0 11 3 2 12 -8 8 -8 17 -1 31 7 11
7 17 1 13 -5 -3 -9 5 -9 19 0 15 4 22 11 18 6 -3 8 -3 4 2 -4 4 -2 15 4 24 10
12 7 11 -8 -2 -20 -16 -21 -16 -40 5 l-19 23 21 -18 c21 -17 22 -17 29 0 4 10
9 26 10 35 1 14 -1 15 -12 7 -8 -7 -13 -8 -13 -1 0 15 26 33 35 24 5 -4 5 -1
1 6 -6 11 -12 10 -31 -2 -19 -12 -26 -13 -31 -3 -4 6 -3 9 1 4 9 -8 45 21 45
37 0 6 -5 5 -12 -2 -7 -7 -17 -12 -23 -12 -5 0 -2 5 8 11 9 5 17 14 17 19 0 5
-8 7 -17 4 -15 -5 -15 -4 -3 5 11 7 20 5 35 -7 17 -15 18 -15 7 0 -7 9 -9 18
-5 20 4 3 2 3 -5 2 -7 -2 -15 3 -19 11 -4 13 -8 13 -22 3 -14 -11 -14 -11 -4
3 7 9 9 20 5 25 -4 4 0 3 9 -4 9 -6 20 -8 24 -4 5 4 5 1 1 -5 -5 -9 -2 -11 9
-6 12 4 13 8 5 13 -8 5 -9 13 -4 21 6 12 5 12 -9 0 -9 -7 -17 -9 -17 -3 0 15
26 33 35 24 5 -4 5 -1 1 6 -6 11 -12 10 -31 -2 -19 -12 -26 -13 -31 -3 -4 6
-3 9 1 4 10 -9 47 22 39 34 -3 5 0 9 7 9 10 0 10 3 1 12 -8 8 -8 17 -1 31 7
11 7 17 1 13 -5 -3 -9 5 -9 19 0 15 4 22 11 18 6 -3 8 -3 4 2 -4 4 -2 15 5 24
11 14 10 15 -7 1 -22 -17 -44 -21 -51 -10 -3 5 4 7 15 5 25 -5 26 10 3 24 -16
9 -16 10 4 8 12 0 19 -6 16 -12 -4 -5 -2 -7 2 -2 5 4 9 16 10 27 1 15 -1 17
-12 9 -8 -7 -13 -8 -13 -1 0 15 26 33 35 24 5 -4 5 -1 1 6 -6 9 -12 9 -29 1
-21 -12 -21 -11 -4 8 9 11 14 23 10 26 -3 4 0 7 7 7 11 0 11 3 2 12 -8 8 -8
17 -1 31 7 11 7 17 1 13 -5 -3 -9 5 -9 19 0 15 4 22 11 18 6 -3 8 -3 4 2 -4 4
-2 15 4 24 10 12 7 11 -8 -2 -20 -16 -21 -16 -40 5 l-19 23 21 -18 c21 -17 22
-17 29 0 4 10 9 26 10 35 1 14 -1 15 -12 7 -8 -7 -13 -8 -13 -1 0 15 26 33 35
24 5 -4 5 -1 1 6 -6 11 -12 10 -31 -2 -19 -12 -26 -13 -31 -3 -4 6 -3 9 1 4 9
-8 45 21 45 37 0 6 -5 5 -12 -2 -7 -7 -17 -12 -22 -12 -6 0 -3 5 7 11 9 5 17
14 17 19 0 5 -8 7 -17 4 -15 -5 -15 -4 -3 5 11 7 20 5 35 -7 17 -15 18 -15 7
0 -7 9 -9 18 -5 20 4 3 2 3 -5 2 -7 -2 -15 3 -19 11 -4 13 -8 13 -22 3 -14
-11 -14 -11 -4 3 7 9 9 20 5 25 -4 4 0 3 9 -4 9 -6 20 -8 24 -4 5 4 5 1 1 -5
-5 -9 -2 -11 9 -6 12 4 13 8 5 13 -8 5 -9 13 -4 21 6 12 5 12 -9 0 -9 -7 -17
-9 -17 -3 0 15 26 33 35 24 5 -4 5 -1 1 6 -6 11 -12 10 -31 -2 -17 -12 -26
-13 -31 -4 -4 6 -3 8 3 5 12 -8 46 27 36 36 -3 4 0 7 7 7 11 0 11 3 2 12 -8 8
-8 17 -1 31 7 11 7 17 1 13 -5 -3 -9 5 -9 19 0 15 4 22 11 18 6 -3 8 -3 4 2
-4 4 -2 15 5 24 11 14 10 15 -7 1 -22 -17 -44 -21 -51 -10 -3 5 4 7 15 5 25
-5 26 10 3 24 -16 9 -16 10 4 8 12 0 19 -6 16 -12 -4 -5 -2 -7 2 -2 5 4 9 16
10 27 1 15 -1 17 -12 9 -8 -7 -13 -8 -13 -1 0 15 26 33 35 24 5 -4 5 -1 1 6
-6 9 -12 9 -29 1 -21 -12 -21 -11 -4 8 9 11 14 23 10 26 -3 4 0 7 7 7 11 0 11
3 2 12 -8 8 -8 17 -1 31 7 11 7 17 1 13 -5 -3 -9 5 -9 19 0 15 4 22 11 18 6
-3 8 -3 4 2 -4 4 -2 15 4 24 10 12 7 11 -8 -2 -20 -16 -21 -16 -40 5 l-19 23
21 -18 c21 -17 22 -17 29 0 4 10 9 26 10 35 1 14 -1 15 -12 7 -8 -7 -13 -8
-13 -1 0 15 26 33 35 24 5 -4 5 -1 1 6 -6 11 -12 10 -31 -2 -19 -12 -26 -13
-31 -3 -4 6 -3 9 1 4 9 -8 45 21 45 37 0 6 -5 5 -12 -2 -7 -7 -17 -12 -23 -12
-5 0 -2 5 8 11 9 5 17 14 17 19 0 5 -8 7 -17 4 -15 -5 -15 -4 -3 5 11 7 20 5
35 -7 17 -15 18 -15 7 0 -7 9 -9 18 -5 20 4 3 2 3 -5 2 -7 -2 -15 3 -19 11 -4
13 -8 13 -22 3 -14 -11 -14 -11 -4 3 7 9 9 20 5 25 -4 4 0 3 9 -4 9 -6 20 -8
24 -4 5 4 5 1 1 -5 -5 -9 -2 -11 9 -6 12 4 13 8 5 13 -8 5 -9 13 -4 21 6 12 5
12 -9 0 -9 -7 -17 -9 -17 -3 0 15 26 33 35 24 5 -4 5 -1 1 6 -6 11 -12 10 -31
-2 -19 -12 -26 -13 -31 -3 -4 6 -3 9 1 4 10 -9 47 22 39 34 -3 5 0 9 7 9 10 0
10 3 1 12 -8 8 -8 17 -1 31 7 11 7 17 1 13 -5 -3 -9 5 -9 19 0 15 4 22 11 18
6 -3 8 -3 4 2 -4 4 -2 15 5 24 11 14 10 15 -7 1 -22 -17 -44 -21 -51 -10 -3 5
4 7 15 5 25 -5 26 10 3 24 -16 9 -16 10 4 8 12 0 19 -6 16 -12 -4 -5 -2 -7 2
-2 5 4 9 16 10 27 1 15 -1 17 -12 9 -8 -7 -13 -8 -13 -1 0 15 26 33 35 24 5
-4 5 -1 1 6 -6 9 -12 9 -29 1 -22 -12 -22 -12 -3 9 10 12 23 19 27 16 5 -3 9
0 9 6 0 7 -7 10 -15 6 -16 -6 -21 9 -5 19 5 3 6 13 3 22 -5 12 -3 14 7 8 9 -5
11 -4 6 4 -6 9 -11 9 -22 0 -10 -8 -14 -8 -14 0 0 6 9 16 20 23 11 7 20 17 20
21 0 5 -15 -2 -32 -14 l-33 -23 24 27 c14 15 20 27 15 27 -5 0 -2 5 6 10 8 5
10 10 4 10 -7 0 -19 -11 -28 -25 -9 -14 -21 -25 -26 -25 -6 0 -1 9 10 20 11
11 20 25 20 32 0 6 -3 8 -7 5 -3 -4 -15 1 -26 10 -12 11 -17 12 -12 4z m60
-123 c5 4 5 2 1 -5 -8 -14 -36 -6 -36 9 0 7 5 6 13 -1 8 -6 18 -7 22 -3z m-15
-37 c0 -5 -8 -15 -17 -22 -16 -12 -17 -12 -6 2 7 9 10 19 6 22 -3 4 -1 7 5 7
7 0 12 -4 12 -9z m-240 -67 c0 -8 -19 -13 -24 -6 -3 5 1 9 9 9 8 0 15 -2 15
-3z m244 -82 c3 -5 -1 -9 -9 -9 -8 0 -12 4 -9 9 3 4 7 8 9 8 2 0 6 -4 9 -8z
m-10 -33 c-2 -4 2 -10 8 -12 8 -4 9 -6 2 -6 -6 -1 -17 5 -23 12 -8 10 -7 14 4
14 8 0 12 -4 9 -8z m6 -40 c0 8 2 12 5 9 3 -3 2 -13 -1 -22 -5 -14 -9 -15 -15
-4 -5 7 -9 18 -9 23 0 6 5 3 10 -5 8 -12 10 -12 10 -1z m-2690 -34 c7 -9 8
-15 2 -15 -5 0 -12 7 -16 15 -3 8 -4 15 -2 15 2 0 9 -7 16 -15z m56 -70 l3
-30 -14 25 c-18 31 -19 43 -4 38 7 -2 13 -17 15 -33z m41 -41 c-9 -9 -28 6
-21 18 4 6 10 6 17 -1 6 -6 8 -13 4 -17z m117 -113 c3 -5 -1 -14 -8 -20 -12
-10 -14 -9 -11 6 2 10 4 19 4 21 2 5 10 2 15 -7z m1811 -1 c3 -5 1 -10 -4 -10
-6 0 -11 5 -11 10 0 6 2 10 4 10 3 0 8 -4 11 -10z m680 -2 c5 4 5 1 1 -6 -6
-10 -11 -10 -22 -1 -8 6 -14 14 -14 16 0 3 6 0 13 -6 8 -6 18 -7 22 -3z m-15
-63 c11 -13 10 -14 -4 -9 -9 3 -16 10 -16 15 0 13 6 11 20 -6z m-2439 -12 c13
-16 12 -17 -3 -4 -10 7 -18 15 -18 17 0 8 8 3 21 -13z m2449 -38 c0 -7 -30
-13 -34 -7 -3 4 4 9 15 9 10 1 19 0 19 -2z m0 -24 c0 -5 -8 -17 -17 -28 -10
-10 -14 -13 -9 -6 5 7 5 13 2 13 -4 0 -1 7 6 15 15 17 18 18 18 6z m-2303 -37
c-3 -3 -2 -17 4 -31 6 -16 6 -22 -1 -18 -6 3 -10 13 -10 21 0 8 -6 14 -12 14
-9 0 -8 4 2 10 17 11 26 13 17 4z m1409 -43 c-4 -5 0 -12 6 -15 7 -3 4 -4 -7
-3 -12 1 -19 -3 -17 -11 1 -8 -2 -11 -8 -7 -8 5 -6 13 6 26 18 20 29 26 20 10z
m888 -89 c3 -5 -1 -9 -9 -9 -8 0 -12 4 -9 9 3 4 7 8 9 8 2 0 6 -4 9 -8z m-10
-33 c-2 -4 2 -10 8 -12 8 -4 9 -6 2 -6 -6 -1 -17 5 -23 12 -8 10 -7 14 4 14 8
0 12 -4 9 -8z m-2764 -14 c11 -13 10 -14 -4 -9 -9 3 -16 10 -16 15 0 13 6 11
20 -6z m2770 -26 c0 8 2 12 5 9 3 -3 2 -13 -1 -22 -5 -14 -9 -15 -15 -4 -5 7
-9 18 -9 23 0 6 5 3 10 -5 8 -12 10 -12 10 -1z m-2765 -19 c3 -5 1 -10 -4 -10
-6 0 -11 5 -11 10 0 6 2 10 4 10 3 0 8 -4 11 -10z m1698 -38 c-5 -11 -7 -11
-14 0 -7 11 -9 10 -9 -1 0 -8 -3 -12 -6 -8 -9 9 3 24 20 24 8 0 12 -6 9 -15z
m-916 -71 c-6 -2 -13 1 -15 7 -2 6 -9 10 -15 8 -7 -1 -9 -1 -4 1 4 3 4 10 0
16 -3 6 5 2 19 -9 15 -10 21 -21 15 -23z m137 -153 c-9 -14 -24 1 -17 17 3 8
0 15 -6 15 -6 0 -11 8 -11 18 0 12 6 9 19 -12 11 -17 18 -33 15 -38z m1861 20
c5 4 5 1 1 -6 -6 -10 -11 -10 -22 -1 -8 6 -14 14 -14 16 0 3 6 0 13 -6 8 -6
18 -7 22 -3z m-1335 -18 c0 -5 -5 -10 -11 -10 -5 0 -7 5 -4 10 3 6 8 10 11 10
2 0 4 -4 4 -10z m1320 -45 c11 -13 10 -14 -4 -9 -9 3 -16 10 -16 15 0 13 6 11
20 -6z m-1775 -16 c-4 -5 -1 -9 6 -9 7 0 9 -3 6 -6 -4 -4 -13 -2 -20 4 -8 7
-17 9 -20 5 -4 -3 -7 -1 -7 5 0 12 21 22 33 15 4 -2 5 -9 2 -14z m1785 -34 c0
-7 -30 -13 -34 -7 -3 4 4 9 15 9 10 1 19 0 19 -2z m0 -24 c0 -5 -8 -17 -17
-28 -10 -10 -14 -13 -9 -6 5 7 5 13 2 13 -4 0 -1 7 6 15 15 17 18 18 18 6z
m-2780 -56 c11 -13 10 -14 -4 -9 -9 3 -16 10 -16 15 0 13 6 11 20 -6z m1290
-26 c0 -5 -4 -8 -9 -4 -6 3 -14 -3 -20 -12 -6 -10 -11 -13 -11 -7 0 12 20 34
32 34 4 0 8 -5 8 -11z m-1285 -19 c3 -5 1 -10 -4 -10 -6 0 -11 5 -11 10 0 6 2
10 4 10 3 0 8 -4 11 -10z m2769 -68 c3 -5 -1 -9 -9 -9 -8 0 -12 4 -9 9 3 4 7
8 9 8 2 0 6 -4 9 -8z m-10 -33 c-2 -4 2 -10 8 -12 8 -4 9 -6 2 -6 -6 -1 -17 5
-23 12 -8 10 -7 14 4 14 8 0 12 -4 9 -8z m6 -40 c0 8 2 12 5 9 3 -3 2 -13 -1
-22 -5 -14 -9 -15 -15 -4 -5 7 -9 18 -9 23 0 6 5 3 10 -5 8 -12 10 -12 10 -1z
m15 -261 c5 4 5 1 1 -6 -6 -10 -11 -10 -22 -1 -8 6 -14 14 -14 16 0 3 6 0 13
-6 8 -6 18 -7 22 -3z m-2785 -33 c11 -13 10 -14 -4 -9 -9 3 -16 10 -16 15 0
13 6 11 20 -6z m2770 -30 c11 -13 10 -14 -4 -9 -9 3 -16 10 -16 15 0 13 6 11
20 -6z m-2765 -15 c3 -5 1 -10 -4 -10 -6 0 -11 5 -11 10 0 6 2 10 4 10 3 0 8
-4 11 -10z m2775 -35 c0 -7 -30 -13 -34 -7 -3 4 4 9 15 9 10 1 19 0 19 -2z m0
-24 c0 -5 -8 -17 -17 -28 -10 -10 -14 -13 -9 -6 5 7 5 13 2 13 -4 0 -1 7 6 15
15 17 18 18 18 6z m-6 -169 c3 -5 -1 -9 -9 -9 -8 0 -12 4 -9 9 3 4 7 8 9 8 2
0 6 -4 9 -8z m-10 -33 c-2 -4 2 -10 8 -12 8 -4 9 -6 2 -6 -6 -1 -17 5 -23 12
-8 10 -7 14 4 14 8 0 12 -4 9 -8z m6 -40 c0 8 2 12 5 9 3 -3 2 -13 -1 -22 -5
-14 -9 -15 -15 -4 -5 7 -9 18 -9 23 0 6 5 3 10 -5 8 -12 10 -12 10 -1z m-6
-97 c3 -5 -1 -9 -9 -9 -8 0 -12 4 -9 9 3 4 7 8 9 8 2 0 6 -4 9 -8z m-2764 -37
c11 -13 10 -14 -4 -9 -9 3 -16 10 -16 15 0 13 6 11 20 -6z m2776 0 c-8 -8 -18
-15 -22 -15 -3 0 -1 7 6 15 7 8 17 15 22 15 5 0 3 -7 -6 -15z m-2771 -45 c3
-5 1 -10 -4 -10 -6 0 -11 5 -11 10 0 6 2 10 4 10 3 0 8 -4 11 -10z m2771 -115
c-8 -8 -18 -15 -22 -15 -3 0 -1 7 6 15 7 8 17 15 22 15 5 0 3 -7 -6 -15z m10
-44 c0 -11 -4 -17 -8 -15 -4 3 -8 0 -8 -7 0 -7 -2 -10 -5 -8 -6 7 6 49 14 49
4 0 7 -9 7 -19z m-26 -181 c-18 -12 -30 -13 -30 -2 0 4 10 9 22 9 18 2 20 0 8
-7z"/>
<path d="M2725 2780 c-3 -6 1 -7 9 -4 18 7 21 14 7 14 -6 0 -13 -4 -16 -10z"/>
<path d="M2668 2680 c5 -13 4 -13 -13 0 -10 8 -16 10 -12 3 4 -6 1 -14 -5 -17
-7 -2 -2 -3 12 -1 14 2 28 4 31 4 16 2 15 27 -1 27 -12 0 -16 -5 -12 -16z"/>
<path d="M2526 2541 c-4 -5 -2 -12 3 -15 5 -4 12 -2 15 3 4 5 2 12 -3 15 -5 4
-12 2 -15 -3z"/>
<path d="M86 2482 c-3 -5 1 -9 9 -9 8 0 12 4 9 9 -3 4 -7 8 -9 8 -2 0 -6 -4
-9 -8z"/>
<path d="M2440 2469 c0 -6 -8 -8 -17 -5 -17 6 -17 5 -1 -7 10 -8 15 -17 11
-20 -3 -4 -2 -7 4 -7 6 0 11 11 11 25 0 14 -2 25 -4 25 -2 0 -4 -5 -4 -11z"/>
<path d="M2375 2400 c-3 -5 -1 -10 4 -10 6 0 11 5 11 10 0 6 -2 10 -4 10 -3 0
-8 -4 -11 -10z"/>
<path d="M81 2318 c-13 -20 -12 -22 1 -11 8 7 18 10 22 6 4 -4 4 0 0 10 -8 21
-6 21 -23 -5z"/>
<path d="M2221 2243 c-1 -17 16 -25 25 -12 4 7 3 9 -4 5 -5 -3 -13 0 -15 6 -4
9 -6 10 -6 1z"/>
<path d="M97 2184 c-3 -3 -2 -16 2 -28 5 -11 6 -28 3 -36 -3 -8 -1 -12 3 -8
10 10 14 67 5 73 -4 2 -10 2 -13 -1z"/>
<path d="M75 2140 c3 -5 8 -10 11 -10 2 0 4 5 4 10 0 6 -5 10 -11 10 -5 0 -7
-4 -4 -10z"/>
<path d="M2070 2106 c0 -2 7 -7 16 -10 8 -3 12 -2 9 4 -6 10 -25 14 -25 6z"/>
<path d="M2077 2074 c2 -7 11 -10 19 -7 19 7 18 10 -5 16 -13 3 -18 1 -14 -9z"/>
<path d="M75 2060 c3 -5 8 -10 11 -10 2 0 4 5 4 10 0 6 -5 10 -11 10 -5 0 -7
-4 -4 -10z"/>
<path d="M86 1981 c-4 -5 -2 -12 3 -15 5 -4 12 -2 15 3 4 5 2 12 -3 15 -5 4
-12 2 -15 -3z"/>
<path d="M1939 1970 c-1 -5 -2 -15 -3 -20 0 -6 -7 -15 -15 -19 -9 -6 -10 -11
-2 -15 6 -4 11 -1 11 6 0 11 2 10 9 0 7 -11 9 -11 14 2 3 8 2 18 -3 21 -5 3
-7 12 -3 20 3 8 2 15 -1 15 -3 0 -7 -4 -7 -10z"/>
<path d="M1880 1926 c0 -2 8 -10 18 -17 15 -13 16 -12 3 4 -13 16 -21 21 -21
13z"/>
<path d="M89 1905 c-1 -3 -2 -8 -3 -12 -1 -5 -5 -15 -10 -23 -7 -10 -3 -10 11
3 11 9 24 14 28 10 5 -5 3 0 -4 10 -14 17 -20 21 -22 12z"/>
<path d="M75 1820 c3 -5 8 -10 11 -10 2 0 4 5 4 10 0 6 -5 10 -11 10 -5 0 -7
-4 -4 -10z"/>
<path d="M1775 1800 c-3 -5 -1 -10 4 -10 6 0 11 5 11 10 0 6 -2 10 -4 10 -3 0
-8 -4 -11 -10z"/>
<path d="M1735 1720 c-4 -6 -11 -7 -17 -4 -7 4 -8 2 -4 -5 6 -9 12 -9 24 1 10
7 19 14 21 15 2 2 -1 3 -7 3 -6 0 -14 -5 -17 -10z"/>
<path d="M97 1704 c-3 -3 -2 -16 2 -28 5 -11 6 -28 3 -36 -3 -8 -1 -12 3 -8
10 10 14 67 5 73 -4 2 -10 2 -13 -1z"/>
<path d="M1695 1700 c6 -10 4 -12 -7 -7 -10 3 -15 1 -14 -8 4 -25 14 -27 25
-6 8 14 8 22 -1 27 -7 5 -8 3 -3 -6z"/>
<path d="M75 1660 c3 -5 8 -10 11 -10 2 0 4 5 4 10 0 6 -5 10 -11 10 -5 0 -7
-4 -4 -10z"/>
<path d="M1650 1660 c0 -5 5 -10 11 -10 5 0 7 5 4 10 -3 6 -8 10 -11 10 -2 0
-4 -4 -4 -10z"/>
<path d="M75 1580 c3 -5 8 -10 11 -10 2 0 4 5 4 10 0 6 -5 10 -11 10 -5 0 -7
-4 -4 -10z"/>
<path d="M1555 1580 c3 -5 8 -10 11 -10 2 0 4 5 4 10 0 6 -5 10 -11 10 -5 0
-7 -4 -4 -10z"/>
<path d="M86 1501 c-4 -5 -2 -12 3 -15 5 -4 12 -2 15 3 4 5 2 12 -3 15 -5 4
-12 2 -15 -3z"/>
<path d="M1478 1493 c7 -3 16 -2 19 1 4 3 -2 6 -13 5 -11 0 -14 -3 -6 -6z"/>
<path d="M1435 1461 c-3 -5 -2 -12 3 -15 5 -3 9 1 9 9 0 17 -3 19 -12 6z"/>
<path d="M89 1425 c-1 -3 -2 -8 -3 -12 -1 -5 -5 -15 -10 -23 -7 -10 -3 -10 11
3 11 9 24 14 28 10 5 -5 3 0 -4 10 -14 17 -20 21 -22 12z"/>
<path d="M75 1340 c3 -5 8 -10 11 -10 2 0 4 5 4 10 0 6 -5 10 -11 10 -5 0 -7
-4 -4 -10z"/>
<path d="M97 1224 c-3 -3 -2 -16 2 -28 5 -11 6 -28 3 -36 -3 -8 -1 -12 3 -8
10 10 14 67 5 73 -4 2 -10 2 -13 -1z"/>
<path d="M75 1180 c3 -5 8 -10 11 -10 2 0 4 5 4 10 0 6 -5 10 -11 10 -5 0 -7
-4 -4 -10z"/>
<path d="M75 1100 c3 -5 8 -10 11 -10 2 0 4 5 4 10 0 6 -5 10 -11 10 -5 0 -7
-4 -4 -10z"/>
<path d="M86 1021 c-4 -5 -2 -12 3 -15 5 -4 12 -2 15 3 4 5 2 12 -3 15 -5 4
-12 2 -15 -3z"/>
<path d="M89 945 c-1 -3 -2 -8 -3 -12 -1 -5 -5 -15 -10 -23 -7 -10 -3 -10 11
3 11 9 24 14 28 10 5 -5 3 0 -4 10 -14 17 -20 21 -22 12z"/>
<path d="M75 860 c3 -5 8 -10 11 -10 2 0 4 5 4 10 0 6 -5 10 -11 10 -5 0 -7
-4 -4 -10z"/>
<path d="M97 744 c-3 -3 -2 -16 2 -28 5 -11 6 -28 3 -36 -3 -8 -1 -12 3 -8 10
10 14 67 5 73 -4 2 -10 2 -13 -1z"/>
<path d="M75 700 c3 -5 8 -10 11 -10 2 0 4 5 4 10 0 6 -5 10 -11 10 -5 0 -7
-4 -4 -10z"/>
<path d="M75 620 c3 -5 8 -10 11 -10 2 0 4 5 4 10 0 6 -5 10 -11 10 -5 0 -7
-4 -4 -10z"/>
<path d="M86 541 c-4 -5 -2 -12 3 -15 5 -4 12 -2 15 3 4 5 2 12 -3 15 -5 4
-12 2 -15 -3z"/>
<path d="M2910 381 c-13 -26 -13 -34 2 -29 6 2 12 14 13 26 2 27 -1 28 -15 3z"/>
<path d="M75 380 c3 -5 8 -10 11 -10 2 0 4 5 4 10 0 6 -5 10 -11 10 -5 0 -7
-4 -4 -10z"/>
<path d="M110 161 c0 -7 -4 -9 -10 -6 -5 3 -10 2 -10 -4 0 -5 4 -12 9 -15 10
-6 25 24 16 32 -3 3 -5 0 -5 -7z"/>
</g>
</svg>
